<svg width="200" height="200" viewBox="0 0 200 200" fill="none" xmlns="http://www.w3.org/2000/svg">
<g clip-path="url(#clip0_9_69)">
<rect width="200" height="200" rx="5" fill="#E84949"/>
<path d="M37.3984 125.585V22.7642H162.602V125.585C162.602 165.571 101.857 186.992 101.857 186.992C101.857 186.992 37.3984 164.143 37.3984 125.585Z" fill="#1B1F24"/>
<path d="M101.207 29.2683V49.6482M101.207 49.6482C101.207 49.6482 80.6417 49.6482 72.8411 49.6482C65.0405 49.6482 65.0405 56.9106 65.0405 61.0923C65.0405 65.0406 65.0405 71.0471 72.8411 71.0471H101.207M101.207 49.6482C101.207 49.6482 122.769 49.6482 136.585 49.6482M101.207 49.6482V71.0471M101.207 71.0471H121.693C130.045 71.0471 130.045 79.6748 130.045 82.4911C130.045 86.1788 128.455 92.9162 121.693 92.9162M101.207 71.0471V93.073M121.693 92.9162L101.207 93.073M121.693 92.9162H101.758H81.8236C74.7966 92.9162 73.9836 100 73.9836 104.065C73.9836 108.13 74.7966 115.099 81.8236 115.099M81.8236 115.099H101.207M81.8236 115.099H112.553M101.207 115.099H112.553M101.207 115.099V93.073M101.207 115.099V138.066M112.553 115.099C119.408 115.099 121.813 120.697 121.693 126.935C121.574 133.173 118.226 138.066 112.553 138.066H101.207M101.207 158.994V169.106M101.207 158.994V138.066M101.207 158.994C101.207 158.994 99.2907 158.994 91.5152 158.994C83.7397 158.994 82.9267 152.357 82.9267 147.967C82.9267 143.578 83.7397 138.066 91.5152 138.066C99.2907 138.066 101.207 138.066 101.207 138.066" stroke="#E84949" stroke-width="3"/>
</g>
<defs>
<clipPath id="clip0_9_69">
<rect width="200" height="200" fill="white"/>
</clipPath>
</defs>
</svg>
