<?xml version="1.0" standalone="no"?>
<!DOCTYPE svg PUBLIC "-//W3C//DTD SVG 20010904//EN"
 "http://www.w3.org/TR/2001/REC-SVG-20010904/DTD/svg10.dtd">
<svg version="1.0" xmlns="http://www.w3.org/2000/svg"
 width="700.000000pt" height="700.000000pt" viewBox="0 0 700.000000 700.000000"
 preserveAspectRatio="xMidYMid meet">
<metadata>
Created by potrace 1.14, written by Peter Selinger 2001-2017
</metadata>
<g transform="translate(0.000000,700.000000) scale(0.100000,-0.100000)"
fill="#000000" stroke="none">
<path d="M105 6981 c-48 -22 -69 -44 -90 -94 -13 -33 -15 -392 -15 -3392 0
-3270 1 -3357 19 -3393 23 -46 46 -67 94 -87 32 -13 394 -15 3389 -15 3232 0
3354 1 3393 19 48 22 69 44 90 94 13 33 15 392 15 3392 0 3270 -1 3357 -19
3393 -10 20 -28 45 -39 55 -53 48 123 46 -3447 46 -3230 1 -3351 0 -3390 -18z"/>
</g>
</svg>
